<svg preserveAspectRatio="none" overflow="visible" style="display: block;" width="18.3313" height="18.3312" viewBox="0 0 18.3313 18.3312" fill="none" xmlns="http://www.w3.org/2000/svg">
<g id="git-branch">
<path id="Vector" d="M11.9153 3.66623C9.7275 3.66623 7.62934 4.53533 6.08234 6.08233C4.53534 7.62933 3.66624 9.7275 3.66624 11.9152M11.9153 3.66623C11.9153 5.18484 13.1464 6.41592 14.665 6.41592C16.1836 6.41592 17.4147 5.18484 17.4147 3.66623C17.4147 2.14763 16.1836 0.916561 14.665 0.916561C13.1464 0.916561 11.9153 2.14763 11.9153 3.66623ZM3.66624 11.9152V0.916561M3.66624 11.9152C2.14764 11.9152 0.916561 13.1463 0.916561 14.6649C0.916561 16.1835 2.14764 17.4146 3.66624 17.4146C5.18485 17.4146 6.41593 16.1835 6.41593 14.6649C6.41593 13.1463 5.18485 11.9152 3.66624 11.9152Z" stroke="#6455D0" stroke-width="1.83312" stroke-linecap="round"/>
</g>
</svg>
